<?xml version="1.0" standalone="no"?>
<!DOCTYPE svg PUBLIC "-//W3C//DTD SVG 20010904//EN"
 "http://www.w3.org/TR/2001/REC-SVG-20010904/DTD/svg10.dtd">
<svg version="1.0" xmlns="http://www.w3.org/2000/svg"
 width="331.000000pt" height="331.000000pt" viewBox="0 0 331.000000 331.000000"
 preserveAspectRatio="xMidYMid meet">
<metadata>
Created by potrace 1.16, written by Peter Selinger 2001-2019
</metadata>
<g transform="translate(0.000000,331.000000) scale(0.100000,-0.100000)"
fill="#000000" stroke="none">
<path d="M960 2776 l0 -345 43 -6 c23 -3 335 -30 692 -60 358 -30 674 -58 703
-61 l52 -6 0 340 0 341 -42 6 c-84 11 -1294 128 -1370 132 l-78 5 0 -346z
m380 203 c115 -11 134 -21 132 -69 0 -17 3 -28 7 -25 5 2 9 -43 10 -100 0 -93
-2 -108 -19 -125 -11 -11 -26 -20 -34 -20 -8 0 -17 -4 -20 -9 -8 -13 4 -42 15
-36 11 7 40 -49 44 -86 4 -29 4 -29 -50 -29 l-55 0 -55 85 c-43 68 -59 85 -78
85 -23 0 -25 -4 -29 -75 -3 -42 -8 -78 -11 -81 -3 -3 -25 -2 -50 1 -42 7 -45
9 -51 43 -3 21 -6 63 -6 95 0 40 -3 56 -11 51 -8 -4 -8 0 0 15 6 11 9 31 7 43
-3 13 -8 73 -11 135 -5 101 -4 112 12 116 20 5 96 1 253 -14z m520 -51 c41 -6
81 -15 88 -21 6 -5 12 -25 12 -43 0 -28 -5 -36 -26 -44 -33 -13 -54 -13 -34 0
13 8 12 10 -2 10 -10 0 -18 -5 -18 -11 0 -8 -16 -9 -52 -4 -29 4 -63 9 -75 10
-14 2 -23 -3 -26 -16 -3 -10 -1 -19 4 -19 5 0 9 -8 9 -17 0 -15 -2 -16 -10 -3
-8 13 -10 13 -10 -1 0 -13 15 -17 75 -22 41 -4 92 -9 113 -13 l38 -6 0 -50 0
-50 -113 7 -113 7 0 -40 0 -39 99 -6 c104 -6 141 -19 141 -50 0 -10 -4 -16 -9
-12 -5 3 -11 -7 -13 -22 l-3 -28 -125 3 c-91 3 -135 8 -160 20 l-35 17 -3 213
c-2 142 1 219 9 233 10 20 17 21 87 15 43 -4 111 -12 152 -18z m536 -40 c8 -9
11 -28 7 -61 l-6 -47 -102 6 c-72 5 -104 3 -109 -5 -4 -6 -2 -11 4 -11 8 0 8
-6 0 -20 -12 -23 -3 -26 107 -34 84 -6 116 -21 110 -53 -2 -12 -1 -21 2 -19 4
3 5 -39 4 -92 -1 -53 -3 -105 -3 -114 0 -16 -10 -18 -72 -18 -40 0 -110 3
-155 7 l-83 6 0 53 0 54 100 0 100 0 0 34 0 33 -67 2 c-38 1 -82 6 -99 12 -37
11 -43 37 -45 174 -1 125 -10 119 154 112 97 -4 143 -9 153 -19z"/>
<path d="M1201 2810 c-2 -59 6 -63 109 -58 l65 3 -1 40 c-1 22 -2 46 -3 53 -1
8 -25 12 -84 12 l-84 0 -2 -50z"/>
<path d="M1472 2820 c0 -19 2 -27 5 -17 2 9 2 25 0 35 -3 9 -5 1 -5 -18z"/>
<path d="M1105 2751 c-3 -5 -1 -12 5 -16 5 -3 10 1 10 9 0 18 -6 21 -15 7z"/>
<path d="M1440 2561 c0 -6 4 -13 10 -16 6 -3 7 1 4 9 -7 18 -14 21 -14 7z"/>
<path d="M1640 2629 c0 -5 5 -7 10 -4 6 3 10 8 10 11 0 2 -4 4 -10 4 -5 0 -10
-5 -10 -11z"/>
<path d="M2280 2680 c0 -11 5 -20 10 -20 6 0 10 9 10 20 0 11 -4 20 -10 20 -5
0 -10 -9 -10 -20z"/>
<path d="M2216 2675 c4 -8 10 -15 14 -15 4 0 10 7 14 15 4 10 -1 15 -14 15
-13 0 -18 -5 -14 -15z"/>
<path d="M1760 2260 c0 -5 9 -10 20 -10 11 0 20 5 20 10 0 6 -9 10 -20 10 -11
0 -20 -4 -20 -10z"/>
<path d="M970 2224 c0 -15 10 -17 34 -8 24 9 19 22 -9 22 -15 0 -25 -6 -25
-14z"/>
<path d="M1790 2172 c0 -15 5 -19 20 -15 24 6 21 26 -3 31 -11 2 -17 -3 -17
-16z"/>
<path d="M1038 2171 c-1 -5 -16 -12 -33 -14 -22 -3 -31 -10 -33 -26 -7 -48 5
-53 53 -19 25 17 45 35 45 39 0 12 -28 30 -32 20z"/>
<path d="M1750 2165 c0 -8 5 -15 10 -15 6 0 10 7 10 15 0 8 -4 15 -10 15 -5 0
-10 -7 -10 -15z"/>
<path d="M2692 2118 c-8 -18 -11 -19 -11 -5 -1 15 -12 17 -81 17 -79 0 -80 0
-80 -25 0 -20 5 -25 25 -25 24 0 25 -3 25 -56 0 -55 1 -56 25 -52 14 3 22 1
18 -5 -3 -5 -28 -7 -58 -4 -29 3 -72 1 -95 -4 -69 -16 -159 -26 -154 -18 2 4
-30 9 -71 11 -47 2 -74 -1 -71 -7 2 -5 8 -9 13 -8 5 1 9 -25 8 -58 0 -32 3
-59 7 -59 6 0 19 -70 35 -180 3 -25 7 -70 7 -102 1 -31 4 -54 9 -51 4 2 7 -1
7 -6 0 -16 0 -17 10 -52 8 -25 7 -29 -4 -19 -11 8 -15 8 -19 -2 -4 -9 -6 -7
-6 4 -1 9 4 18 11 20 8 3 9 6 1 11 -6 4 -21 -17 -37 -48 -14 -30 -31 -57 -37
-60 -6 -5 -4 -11 7 -19 13 -10 14 -15 4 -21 -9 -6 -11 -4 -5 5 6 9 4 11 -4 6
-7 -5 -10 -14 -7 -22 6 -16 -19 -44 -42 -45 -9 0 -4 -5 13 -11 19 -7 30 -8 32
-1 2 6 11 19 19 29 9 10 12 13 8 5 -5 -9 -3 -12 5 -7 6 4 9 11 6 16 -9 15 30
31 43 18 16 -16 15 -26 -4 -45 -12 -13 -13 -18 -3 -24 20 -12 29 -1 29 36 0
37 17 56 31 34 6 -10 9 -6 9 14 0 22 4 27 25 27 17 0 29 7 35 23 7 18 9 19 9
3 1 -12 6 -16 16 -12 8 3 15 1 15 -4 0 -6 -11 -10 -25 -10 -14 0 -25 -5 -25
-11 0 -5 -5 -7 -12 -3 -7 4 -8 3 -4 -5 4 -6 15 -10 24 -9 10 2 18 -5 20 -17 2
-15 1 -17 -6 -6 -6 8 -17 11 -31 6 -14 -4 -21 -2 -21 7 0 8 -4 6 -11 -5 -13
-22 -2 -40 21 -34 15 4 19 -3 22 -40 3 -44 -13 -76 -27 -53 -3 5 -13 10 -21
10 -8 0 -13 -4 -9 -9 3 -5 1 -12 -5 -16 -5 -3 -10 -1 -10 6 0 7 -2 10 -6 7 -3
-3 -20 -2 -39 2 -20 5 -33 4 -29 -1 3 -5 1 -9 -4 -9 -6 0 -12 7 -16 15 -3 8
-10 15 -16 15 -6 0 -4 -8 6 -17 11 -11 13 -18 5 -21 -6 -2 -11 -8 -11 -14 0
-6 6 -6 15 2 13 11 15 8 15 -14 0 -14 4 -26 8 -26 5 0 14 -11 20 -25 10 -21 9
-27 -3 -31 -12 -5 -12 -9 2 -30 8 -13 11 -24 5 -24 -16 0 -54 68 -46 81 4 7 3
9 -3 6 -14 -9 -37 19 -27 34 4 8 3 9 -4 5 -7 -4 -12 -2 -12 5 0 7 -3 10 -6 7
-17 -18 85 -149 149 -192 47 -32 62 -36 116 -36 57 0 64 2 97 36 19 20 33 43
30 50 -3 8 -2 13 2 13 4 -1 14 -1 22 0 13 1 13 2 0 11 -12 7 -12 12 -2 22 9 9
12 9 12 -2 1 -8 12 7 26 33 14 26 22 52 19 58 -10 16 -26 -1 -20 -22 4 -11 2
-19 -5 -19 -6 0 -9 -4 -5 -9 3 -5 -5 -13 -17 -17 -43 -15 -49 -14 -38 7 6 10
13 19 16 19 3 0 2 -5 -1 -10 -3 -5 1 -10 10 -10 9 0 13 5 10 10 -3 5 -1 10 5
10 7 0 10 6 7 13 -2 6 -9 11 -15 10 -6 -2 -9 4 -5 13 4 10 8 12 12 5 4 -6 13
5 20 24 7 20 17 33 22 30 5 -4 9 -2 9 4 0 5 -22 10 -50 9 -27 0 -50 -4 -50 -9
0 -5 -5 -9 -12 -9 -6 0 -4 7 5 18 10 10 14 22 10 27 -5 4 -2 5 5 1 7 -4 12 -1
12 7 0 10 7 13 19 10 16 -4 19 -1 14 16 -3 12 -1 21 6 21 6 0 11 -9 11 -20 0
-23 18 -27 26 -5 4 8 12 15 20 15 8 0 11 -6 8 -15 -4 -10 0 -15 11 -15 10 0
13 4 9 12 -4 7 -9 26 -10 43 -1 16 -6 29 -13 28 -6 -2 -11 4 -11 12 0 17 -16
20 -23 5 -3 -6 -4 -5 -3 2 1 7 13 14 25 14 17 1 26 -7 33 -29 9 -25 12 -27 20
-13 5 9 14 13 20 10 7 -4 8 -2 4 5 -4 6 -11 9 -16 6 -5 -3 -11 -1 -14 4 -4 5
2 12 13 16 11 3 22 19 26 35 4 17 11 32 16 35 5 4 9 15 9 26 0 11 8 32 18 46
9 15 11 24 5 20 -7 -5 -13 -4 -13 2 0 6 5 11 12 11 6 0 4 6 -7 13 -11 9 -15
19 -10 27 5 9 4 11 -3 6 -7 -4 -14 3 -18 19 -4 16 -13 25 -25 25 -10 0 -19 4
-19 9 0 5 10 7 23 4 19 -5 20 -4 7 8 -8 8 -20 20 -27 28 -9 10 -11 8 -11 -10
1 -38 -6 -89 -11 -84 -9 10 -29 -17 -24 -32 5 -12 3 -14 -7 -8 -10 6 -12 3 -8
-13 4 -14 2 -20 -4 -16 -7 5 -9 -2 -6 -19 4 -20 0 -28 -14 -33 -12 -3 -17 -12
-14 -22 3 -9 1 -24 -4 -32 -5 -8 -10 -11 -10 -6 0 6 -7 1 -15 -10 -13 -17 -14
-16 -5 14 5 17 6 32 3 32 -3 0 1 8 8 17 13 16 11 16 -15 -1 l-28 -18 6 48 c3
26 11 51 17 55 6 4 8 12 5 18 -4 6 -3 11 2 11 5 0 7 15 5 33 -3 27 -2 29 7 12
8 -16 9 -13 7 18 -2 20 0 37 3 37 10 0 32 188 24 201 -4 7 -3 9 4 5 7 -4 10 9
10 38 0 35 -4 46 -21 54 -21 10 -21 11 4 11 17 1 29 9 37 26 9 18 8 23 -1 19
-9 -3 -11 9 -8 42 3 45 4 46 33 42 24 -4 32 0 44 24 12 23 20 28 37 23 17 -5
19 -4 7 4 -23 16 -36 13 -48 -11z m-112 -200 c0 -5 5 -6 10 -3 6 3 10 2 10 -4
0 -19 -23 -24 -32 -7 -5 9 -14 13 -20 10 -6 -4 -8 -3 -5 3 8 12 37 13 37 1z
m130 -362 c0 -2 -8 -10 -17 -17 -16 -13 -17 -12 -4 4 13 16 21 21 21 13z
m-216 -85 c-2 -25 -6 -62 -10 -81 -3 -19 -6 -41 -7 -47 -1 -27 -10 -1 -12 37
-1 22 2 40 8 40 6 0 7 3 4 6 -3 4 -2 15 4 25 7 14 5 21 -10 30 -14 9 -16 15
-8 24 24 25 35 12 31 -34z m-138 -106 c1 -8 -3 -18 -8 -22 -7 -3 -8 -1 -4 6 4
6 0 14 -9 17 -13 5 -14 9 -4 15 15 9 22 5 25 -16z m114 -50 c11 7 6 -23 -6
-35 -6 -6 -10 3 -10 23 -1 18 1 26 3 19 3 -6 8 -10 13 -7z m-60 -5 c0 -5 -2
-10 -4 -10 -3 0 -8 5 -11 10 -3 6 -1 10 4 10 6 0 11 -4 11 -10z m133 -18 c4 9
6 7 6 -4 1 -9 -8 -19 -18 -23 -12 -4 -18 -12 -14 -21 4 -10 0 -12 -11 -8 -17
7 -22 34 -6 34 6 0 9 3 9 8 -3 19 2 23 15 13 11 -9 15 -9 19 1z m92 -11 c3 -5
0 -13 -6 -17 -7 -4 -9 -3 -5 4 3 6 -2 13 -11 15 -16 4 -16 5 -1 6 9 0 19 -3
23 -8z m-205 -47 c0 -8 -19 -13 -24 -6 -3 5 1 9 9 9 8 0 15 -2 15 -3z m50 -9
c5 3 10 1 10 -4 0 -6 -8 -11 -17 -12 -11 0 -13 -3 -5 -6 18 -7 15 -21 -5 -19
-11 0 -17 -5 -15 -13 3 -12 0 -12 -12 -1 -19 15 -21 24 -4 14 8 -5 9 -2 5 9
-10 26 2 50 19 36 7 -6 18 -8 24 -4z m-79 -32 c13 -16 12 -17 -3 -4 -17 13
-22 21 -14 21 2 0 10 -8 17 -17z m181 -45 c-9 -9 -15 -9 -24 0 -9 9 -7 12 12
12 19 0 21 -3 12 -12z m-217 -18 c3 -5 1 -10 -4 -10 -6 0 -11 5 -11 10 0 6 2
10 4 10 3 0 8 -4 11 -10z m146 -17 c-12 -20 -14 -14 -5 12 4 9 9 14 11 11 3
-2 0 -13 -6 -23z m-261 13 c0 -3 -4 -8 -10 -11 -5 -3 -10 -1 -10 4 0 6 5 11
10 11 6 0 10 -2 10 -4z m206 -11 c-20 -15 -20 -15 0 -16 11 0 14 -3 6 -6 -8
-3 -22 4 -33 16 l-20 21 33 0 c31 -1 32 -1 14 -15z m-108 -30 c1 -14 -3 -25
-8 -25 -6 0 -9 6 -7 13 1 6 -3 11 -10 10 -9 -2 -11 14 -4 34 1 1 7 0 14 -3 7
-2 14 -16 15 -29z m-84 -20 c3 -8 1 -15 -4 -15 -6 0 -10 7 -10 15 0 8 2 15 4
15 2 0 6 -7 10 -15z m-1 -49 c-4 -22 -2 -24 18 -19 23 5 23 5 5 -9 -10 -8 -16
-20 -12 -26 5 -8 1 -10 -9 -6 -9 4 -14 12 -11 19 2 6 0 18 -4 26 -5 8 -4 19 2
26 15 18 16 17 11 -11z m67 -26 c4 -3 -4 -14 -19 -25 -24 -17 -25 -18 -11 0 8
10 14 28 13 39 -2 14 0 16 4 6 3 -8 9 -17 13 -20z m184 -21 c3 1 6 -2 5 -6 -1
-5 -5 -7 -10 -6 -4 2 -13 -6 -19 -17 -6 -11 -18 -20 -28 -20 -14 0 -15 -2 -2
-10 11 -7 7 -8 -15 -6 -17 2 -30 8 -30 15 0 6 4 11 8 11 4 -1 16 7 25 17 9 10
14 14 10 9 -12 -16 -9 -26 8 -26 8 0 12 5 9 10 -3 6 -1 10 4 10 6 0 10 3 10 8
-1 4 -1 14 0 22 1 12 3 12 10 2 4 -8 11 -13 15 -13z m-177 -6 c-4 -3 -1 -13 6
-22 11 -14 10 -14 -5 -2 -16 12 -16 31 -1 31 4 0 3 -3 0 -7z m37 -35 c-5 -8
-1 -9 12 -4 14 5 16 4 7 -5 -13 -13 -37 -3 -28 12 4 5 8 9 11 9 3 0 2 -5 -2
-12z"/>
<path d="M2020 2120 c-8 -5 -11 -10 -6 -10 5 0 4 -6 -2 -13 -8 -10 -6 -13 9
-14 15 -1 19 3 14 18 -5 15 -2 19 19 19 14 0 30 -8 35 -17 6 -10 11 -13 11 -7
1 29 -49 44 -80 24z"/>
<path d="M2148 2063 c-2 -38 -2 -74 0 -80 5 -15 41 -17 76 -3 17 6 26 6 26 0
0 -6 14 -10 30 -10 l30 0 0 80 0 80 -79 0 -79 0 -4 -67z m108 -5 c-2 -18 -10
-24 -37 -26 -24 -2 -30 0 -20 7 8 5 11 16 8 25 -5 12 0 16 23 16 25 0 29 -3
26 -22z"/>
<path d="M2330 2050 l0 -80 30 0 c27 0 30 3 30 32 l0 32 20 -22 c11 -12 20
-26 20 -32 0 -5 14 -10 30 -10 l30 0 0 80 0 80 -30 0 c-27 0 -30 -3 -30 -30 0
-16 -5 -30 -11 -30 -6 0 -16 14 -22 30 -9 23 -17 30 -39 30 l-28 0 0 -80z"/>
<path d="M2752 2113 c-10 -4 -8 -11 9 -29 18 -20 20 -26 9 -39 -7 -8 -10 -18
-6 -22 3 -3 6 0 6 8 1 8 7 -1 16 -20 11 -26 17 -32 26 -23 7 7 16 8 23 2 7 -6
19 -4 33 6 20 14 21 17 8 42 -12 24 -66 72 -81 72 -3 0 13 -16 35 -36 39 -36
57 -70 23 -43 -15 11 -14 10 1 -9 11 -12 16 -22 12 -22 -9 0 -64 57 -66 68 -1
4 -6 6 -11 5 -8 -3 -13 19 -10 40 1 8 -7 8 -27 0z"/>
<path d="M1714 2089 c-3 -6 -1 -16 5 -22 9 -9 14 -8 21 3 9 15 4 30 -10 30 -5
0 -12 -5 -16 -11z"/>
<path d="M1940 2079 c-17 -13 -18 -17 -5 -10 33 17 51 31 40 31 -5 0 -21 -10
-35 -21z"/>
<path d="M1091 2074 c-12 -14 -12 -17 0 -25 17 -10 45 14 35 30 -9 15 -18 13
-35 -5z"/>
<path d="M1807 2083 c-15 -2 -31 -12 -36 -22 -8 -13 -3 -19 21 -30 25 -12 32
-11 39 0 8 12 13 62 7 58 -2 -1 -15 -4 -31 -6z"/>
<path d="M1969 2072 c-1 -4 -1 -10 0 -14 0 -4 -10 -10 -23 -14 -17 -4 -23 -13
-24 -35 0 -20 4 -29 15 -29 14 0 14 -2 2 -18 -8 -10 5 2 29 27 l43 46 20 -25
c15 -20 18 -21 12 -5 -6 18 -5 18 10 6 9 -7 17 -19 17 -26 0 -7 12 -20 26 -30
28 -18 43 -15 20 4 -8 7 -12 19 -9 27 6 16 -15 46 -27 39 -5 -3 -6 3 -3 13 2
10 -3 25 -12 32 -15 12 -16 12 -13 -6 2 -11 -2 -18 -9 -17 -8 2 -10 -4 -6 -14
4 -11 3 -14 -5 -9 -7 4 -12 17 -12 29 0 17 -6 23 -25 25 -14 1 -26 -2 -26 -6z"/>
<path d="M2094 2068 c-4 -7 -4 -10 1 -6 4 4 14 0 22 -10 13 -15 13 -15 3 6
-12 25 -16 27 -26 10z"/>
<path d="M2727 2044 c4 -12 3 -15 -6 -10 -6 4 -18 2 -26 -4 -12 -10 -15 -10
-15 0 0 8 -3 11 -6 8 -3 -4 2 -18 12 -33 16 -24 16 -26 -1 -39 -26 -19 -27
-42 -1 -43 19 -2 20 -1 4 11 -20 15 -14 28 8 19 8 -3 14 -2 13 3 -4 21 2 35
11 29 7 -4 7 2 0 19 -7 20 -6 24 5 19 17 -6 21 22 5 32 -6 4 -7 -1 -3 -11z
m-17 -39 c0 -8 -2 -15 -4 -15 -2 0 -6 7 -10 15 -3 8 -1 15 4 15 6 0 10 -7 10
-15z"/>
<path d="M1012 2041 c-18 -3 -33 -9 -32 -13 0 -5 0 -21 0 -37 0 -26 3 -28 23
-23 42 13 67 37 60 60 -3 12 -8 21 -12 21 -3 -1 -21 -4 -39 -8z"/>
<path d="M1189 2018 c-9 -16 -8 -22 2 -29 18 -11 29 -11 29 0 0 5 3 16 6 24 9
24 -24 29 -37 5z"/>
<path d="M2647 2033 c-4 -3 -7 -11 -7 -17 0 -6 5 -5 12 2 6 6 9 14 7 17 -3 3
-9 2 -12 -2z"/>
<path d="M1646 2013 c-10 -10 75 -93 95 -93 33 0 30 20 -4 35 -19 8 -42 26
-51 40 -17 25 -27 30 -40 18z"/>
<path d="M2746 1995 c-9 -26 -7 -32 5 -12 6 10 9 21 6 23 -2 3 -7 -2 -11 -11z"/>
<path d="M2890 1992 c0 -4 -9 -13 -21 -20 -12 -8 -18 -9 -15 -4 3 5 -5 8 -17
7 -31 -3 -31 -3 -17 -20 7 -8 15 -13 19 -10 10 6 61 -50 61 -68 0 -7 10 -19
23 -25 20 -10 20 -11 2 -9 -11 2 -26 6 -32 10 -8 5 -13 4 -13 -2 0 -6 5 -12
10 -12 6 -1 15 -2 20 -3 11 -1 30 -25 30 -39 0 -5 -4 -6 -9 -3 -4 3 -6 -5 -4
-17 3 -13 14 -29 26 -36 21 -14 21 -13 4 12 -23 35 -22 39 12 34 19 -3 31 0
35 8 3 9 0 12 -8 9 -18 -7 -32 16 -16 26 8 5 5 9 -10 13 -18 5 -21 11 -16 32
5 21 2 27 -19 35 -25 9 -31 21 -18 33 8 9 53 -32 53 -49 0 -6 9 -22 21 -35
l20 -24 -18 35 c-18 35 -103 135 -103 122z m24 -43 c-10 -16 -23 -9 -21 10 1
15 4 17 14 9 7 -5 10 -14 7 -19z m36 -59 c0 -5 -2 -10 -4 -10 -3 0 -8 5 -11
10 -3 6 -1 10 4 10 6 0 11 -4 11 -10z"/>
<path d="M1143 1948 c-23 -25 -106 -68 -132 -68 -11 0 -22 9 -26 20 -5 15 -15
20 -43 20 -20 0 -138 7 -262 15 -124 8 -239 15 -256 15 -31 0 -33 -2 -59 -82
-39 -119 -90 -210 -146 -263 -53 -50 -53 -58 2 -21 48 33 91 99 124 191 15 41
31 75 35 75 10 0 5 -914 -5 -997 l-8 -63 27 0 c23 0 26 4 26 37 0 42 17 35 22
-10 2 -15 8 -27 13 -27 6 1 9 9 7 18 -1 9 -5 57 -9 105 -5 82 -4 89 17 112 13
14 28 25 33 25 6 0 8 -49 5 -131 -6 -129 -5 -130 16 -127 17 2 20 9 18 33 -2
23 -1 27 7 15 6 -8 11 -23 11 -32 0 -10 5 -18 11 -18 7 0 9 9 4 28 -4 15 -10
86 -12 158 l-5 131 370 8 c204 4 374 5 379 2 5 -3 -2 -66 -15 -139 -33 -183
-33 -193 -2 -193 23 0 25 4 23 38 -2 23 1 35 7 32 6 -3 10 -22 10 -41 0 -25 4
-34 16 -34 13 0 15 6 9 28 -3 15 -9 72 -12 127 -4 80 -2 104 11 120 11 15 18
17 26 9 8 -8 8 -39 1 -114 -14 -133 -14 -132 6 -128 10 2 21 16 24 33 7 30 7
30 8 3 0 -15 4 -29 9 -31 4 -3 7 71 7 164 l0 169 -32 20 c-61 36 -67 77 -25
159 l28 54 -62 210 c-35 115 -65 211 -67 214 -3 2 -24 -30 -47 -71 -44 -77
-58 -90 -86 -79 -20 7 -16 17 45 102 28 39 51 73 51 76 0 3 -16 5 -35 5 -19 0
-35 2 -35 4 0 2 9 25 20 51 11 26 20 50 20 53 0 16 -50 8 -67 -10z"/>
<path d="M2723 1937 c-1 -30 -1 -31 8 -8 5 14 6 28 2 32 -4 4 -9 -6 -10 -24z"/>
<path d="M2089 1929 c-10 -6 -7 -9 14 -9 29 0 35 5 14 13 -8 3 -20 1 -28 -4z"/>
<path d="M2840 1931 c0 -5 5 -13 10 -16 6 -3 10 -2 10 4 0 5 -4 13 -10 16 -5
3 -10 2 -10 -4z"/>
<path d="M1401 1896 c-79 -26 -102 -125 -41 -179 27 -24 38 -28 69 -23 20 4
44 7 53 8 9 1 16 5 16 8 -1 3 4 18 10 33 38 91 -25 181 -107 153z m69 -26 c22
-12 42 -64 33 -88 -32 -91 -153 -78 -153 17 0 63 64 101 120 71z"/>
<path d="M1414 1830 c-26 -10 -40 -40 -19 -40 8 0 15 -7 15 -15 0 -20 36 -19
44 1 8 22 8 24 -8 24 -9 0 -12 7 -9 20 6 22 6 22 -23 10z"/>
<path d="M2113 1896 c0 -6 -4 -20 -8 -31 -5 -14 -4 -16 3 -6 7 9 12 10 16 2 4
-6 15 -11 24 -10 11 0 12 2 4 6 -6 2 -10 9 -6 14 3 5 -3 9 -13 10 -10 0 -13 3
-5 6 16 6 16 20 -1 20 -8 0 -14 -5 -14 -11z"/>
<path d="M2655 1863 c-4 -27 -6 -50 -5 -51 1 -2 -7 -10 -17 -18 -12 -8 -13
-13 -5 -14 7 0 10 -4 7 -10 -3 -5 -1 -10 4 -10 10 0 16 29 12 53 -1 7 14 11
34 8 6 -1 1 6 -10 14 -13 10 -16 18 -9 23 5 4 10 17 10 30 0 39 -13 24 -21
-25z"/>
<path d="M2705 1883 c5 -21 4 -24 -4 -13 -9 13 -11 12 -11 -4 0 -12 5 -16 15
-13 8 4 17 2 20 -2 3 -5 -2 -11 -10 -15 -8 -3 -15 -12 -15 -21 0 -8 -4 -15
-10 -15 -6 0 -6 -9 0 -25 11 -29 10 -44 -5 -61 -7 -9 -12 -9 -18 0 -5 6 -6 -1
-3 -16 5 -23 3 -27 -11 -22 -14 5 -15 4 -4 -4 11 -8 11 -10 0 -15 -9 -3 -10
-6 -2 -6 6 -1 14 3 17 8 3 4 17 6 31 4 13 -3 22 -9 19 -14 -2 -5 2 -20 11 -33
9 -14 14 -30 10 -35 -4 -7 4 -10 19 -9 13 1 23 5 20 9 -2 4 0 11 6 14 8 5 8
11 1 19 -6 7 -8 16 -4 19 3 4 0 7 -8 7 -12 0 -12 2 0 9 13 8 13 12 0 27 -9 11
-9 15 -1 10 17 -10 15 9 -7 55 -11 21 -14 36 -8 33 7 -3 3 2 -8 12 -16 13 -17
16 -3 11 28 -10 30 9 3 41 -14 16 -25 37 -25 45 0 9 -5 19 -10 22 -7 4 -9 -3
-5 -22z m32 -207 c7 -1 16 -5 19 -9 12 -12 -20 -7 -51 9 -26 12 -27 13 -5 9
14 -3 30 -7 37 -9z m31 -59 c8 -10 6 -13 -8 -13 -10 0 -17 3 -14 7 2 4 -2 10
-8 12 -9 4 -7 6 3 6 9 1 21 -5 27 -12z"/>
<path d="M2024 1878 l-19 -23 23 19 c21 18 27 26 19 26 -2 0 -12 -10 -23 -22z"/>
<path d="M2090 1888 c0 -6 -3 -8 -6 -5 -4 4 -20 -8 -37 -26 -16 -17 -26 -25
-21 -17 5 9 1 7 -9 -4 -10 -10 -15 -26 -13 -33 3 -8 2 -12 -3 -9 -5 3 -12 -2
-15 -11 -6 -14 -9 -15 -15 -4 -6 9 -10 5 -15 -14 -4 -15 -5 -30 -1 -33 3 -3 5
3 5 13 0 14 3 15 15 5 10 -9 12 -16 5 -25 -6 -8 -6 -15 2 -23 9 -9 8 -12 -6
-12 -9 0 -14 -5 -11 -10 4 -6 10 -8 15 -5 4 3 6 -4 3 -15 -6 -24 12 -27 21 -4
4 10 16 14 33 13 16 -2 34 1 42 5 10 7 12 5 6 -4 -5 -9 -4 -11 3 -6 7 4 12 15
12 24 0 15 2 15 10 2 8 -13 12 -12 25 8 9 12 23 22 31 22 8 0 12 5 9 10 -5 8
-11 8 -19 1 -7 -6 -17 -7 -21 -3 -5 4 -5 1 -1 -5 4 -7 2 -13 -3 -13 -10 0 -13
12 -15 68 -1 10 6 17 18 17 11 0 20 8 22 18 1 9 -2 15 -7 11 -5 -3 -9 1 -10 8
0 7 -4 3 -9 -9 -19 -48 -36 -18 -32 55 0 12 -1 22 -4 22 -2 0 -4 -5 -4 -12z"/>
<path d="M1555 1845 c-44 -43 -22 -115 36 -115 32 0 69 31 68 58 0 13 -2 12
-9 -5 -12 -31 -45 -46 -69 -33 -38 20 -38 83 0 95 10 4 19 11 19 16 0 16 -20
10 -45 -16z"/>
<path d="M3016 1817 c3 -10 9 -15 12 -12 3 3 0 11 -7 18 -10 9 -11 8 -5 -6z"/>
<path d="M1580 1808 c0 -7 5 -20 10 -28 12 -20 33 0 24 23 -7 20 -34 23 -34 5z"/>
<path d="M1970 1809 c0 -5 5 -7 10 -4 6 3 10 8 10 11 0 2 -4 4 -10 4 -5 0 -10
-5 -10 -11z"/>
<path d="M3029 1784 c-1 -5 -1 -13 0 -18 1 -5 -6 -5 -16 -1 -37 14 -52 14 -46
-1 3 -8 12 -13 20 -9 11 3 13 1 9 -10 -3 -8 -1 -15 4 -15 6 0 10 -7 10 -15 0
-9 6 -12 17 -8 11 4 14 3 9 -5 -4 -7 -1 -12 10 -12 15 0 16 2 2 18 -24 28 -33
46 -18 37 9 -6 11 -4 5 5 -6 10 -4 12 10 6 16 -6 16 -4 4 11 -7 10 -15 20 -16
22 -2 2 -4 0 -4 -5z"/>
<path d="M2150 1768 c0 -9 -6 -19 -12 -21 -7 -3 -8 -6 -3 -6 6 0 17 4 25 9 12
7 12 12 2 22 -9 9 -12 9 -12 -4z"/>
<path d="M2792 1710 c0 -14 2 -19 5 -12 2 6 2 18 0 25 -3 6 -5 1 -5 -13z"/>
<path d="M1936 1689 c-3 -17 -5 -43 -5 -58 1 -14 5 -2 10 28 10 58 6 83 -5 30z"/>
<path d="M3076 1707 c3 -10 9 -15 12 -12 3 3 0 11 -7 18 -10 9 -11 8 -5 -6z"/>
<path d="M2981 1674 c0 -11 3 -14 6 -6 3 7 2 16 -1 19 -3 4 -6 -2 -5 -13z"/>
<path d="M3010 1673 c0 -15 2 -16 10 -3 7 11 10 11 10 2 0 -7 4 -10 10 -7 6 3
7 -1 4 -9 -3 -9 -11 -13 -17 -9 -6 3 -7 1 -3 -5 4 -6 13 -9 21 -6 10 4 12 0 8
-15 -4 -14 -1 -21 9 -21 17 0 20 -30 4 -30 -6 0 -3 -5 7 -11 9 -6 14 -15 11
-21 -4 -7 -2 -8 4 -4 13 8 16 46 4 46 -5 0 -7 13 -6 30 1 16 -2 27 -7 24 -5
-3 -6 -10 -3 -16 4 -7 2 -8 -4 -4 -8 5 -8 15 -1 34 6 14 7 23 3 20 -4 -4 -16
-1 -28 7 -27 20 -36 19 -36 -2z"/>
<path d="M2803 1605 c0 -44 2 -61 4 -37 2 23 2 59 0 80 -2 20 -4 1 -4 -43z"/>
<path d="M2610 1663 c0 -5 5 -15 10 -23 8 -12 10 -11 10 8 0 12 -4 22 -10 22
-5 0 -10 -3 -10 -7z"/>
<path d="M2011 1647 c-6 -8 -8 -17 -4 -21 4 -4 2 -11 -6 -15 -9 -6 -7 -10 9
-14 16 -4 20 -2 16 9 -3 8 1 17 8 20 8 3 17 12 20 20 7 18 -27 19 -43 1z"/>
<path d="M1965 1620 c-3 -5 -2 -10 4 -10 5 0 13 5 16 10 3 6 2 10 -4 10 -5 0
-13 -4 -16 -10z"/>
<path d="M2616 1606 c7 -19 20 -21 30 -3 4 6 4 9 -1 5 -4 -4 -14 -3 -22 4 -11
8 -12 7 -7 -6z"/>
<path d="M3010 1605 c0 -5 5 -17 10 -25 5 -8 10 -10 10 -5 0 6 -5 17 -10 25
-5 8 -10 11 -10 5z"/>
<path d="M3120 1591 c0 -5 5 -13 10 -16 6 -3 10 -2 10 4 0 5 -4 13 -10 16 -5
3 -10 2 -10 -4z"/>
<path d="M1932 1560 c0 -19 2 -27 5 -17 2 9 2 25 0 35 -3 9 -5 1 -5 -18z"/>
<path d="M1966 1575 c4 -8 8 -15 10 -15 2 0 4 7 4 15 0 8 -4 15 -10 15 -5 0
-7 -7 -4 -15z"/>
<path d="M52 1550 c-53 -24 -51 -45 5 -44 25 0 52 9 74 24 l33 24 -24 7 c-38
11 -42 10 -88 -11z"/>
<path d="M2043 1533 c-18 -26 -35 -116 -21 -107 4 3 8 -2 8 -10 0 -8 7 -22 16
-30 8 -9 12 -16 8 -16 -4 0 2 -9 14 -20 28 -27 56 -25 71 4 7 13 24 29 37 35
31 14 30 29 -6 71 -27 31 -33 43 -32 60 0 3 -17 13 -39 22 -39 17 -39 17 -56
-9z m41 -52 c-3 -3 -15 6 -27 18 l-22 24 27 -19 c14 -10 24 -21 22 -23z m-23
-28 c13 -16 12 -17 -3 -4 -17 13 -22 21 -14 21 2 0 10 -8 17 -17z m119 -42 c0
-6 -4 -12 -8 -15 -5 -3 -9 1 -9 9 0 8 4 15 9 15 4 0 8 -4 8 -9z m-104 -14 c4
-4 14 -1 23 6 14 11 14 10 2 -6 -9 -12 -17 -14 -26 -7 -6 5 -14 7 -17 4 -3 -3
-9 -1 -12 4 -7 11 19 10 30 -1z m34 -48 c0 -5 -4 -9 -8 -9 -5 0 -9 7 -9 15 0
8 4 12 9 9 4 -3 8 -9 8 -15z"/>
<path d="M2603 1545 c0 -8 4 -15 8 -15 4 0 9 7 13 15 3 9 0 15 -8 15 -7 0 -13
-7 -13 -15z"/>
<path d="M3031 1538 c-1 -15 4 -30 9 -33 12 -7 12 12 0 40 -8 18 -9 17 -9 -7z"/>
<path d="M2191 1533 c7 -12 15 -20 18 -17 3 2 -3 12 -13 22 -17 16 -18 16 -5
-5z"/>
<path d="M3150 1520 c0 -8 5 -22 10 -30 9 -13 10 -13 10 0 0 8 -5 22 -10 30
-9 13 -10 13 -10 0z"/>
<path d="M1941 1504 c0 -11 3 -14 6 -6 3 7 2 16 -1 19 -3 4 -6 -2 -5 -13z"/>
<path d="M3097 1490 c6 -7 9 -19 6 -26 -7 -18 1 -18 16 0 10 12 8 17 -11 27
-18 9 -21 9 -11 -1z"/>
<path d="M1951 1472 c-1 -20 28 -86 36 -79 3 4 1 12 -4 19 -6 7 -15 27 -21 43
-6 17 -11 24 -11 17z"/>
<path d="M2583 1455 c0 -8 4 -12 9 -9 4 3 8 9 8 15 0 5 -4 9 -8 9 -5 0 -9 -7
-9 -15z"/>
<path d="M2755 1423 c-8 -20 -13 -38 -10 -41 3 -3 5 -3 5 0 0 3 7 22 15 42 8
20 13 36 10 36 -2 0 -12 -16 -20 -37z"/>
<path d="M3122 1440 c-10 -17 -10 -20 3 -20 13 0 14 -4 3 -22 -18 -34 -19 -55
-3 -62 8 -3 15 -1 15 3 0 5 3 18 6 28 6 16 5 16 -9 -2 -13 -16 -15 -17 -13 -4
1 10 8 24 16 33 9 12 10 20 2 28 -6 6 -8 17 -5 24 8 20 0 17 -15 -6z"/>
<path d="M3172 1440 c0 -14 2 -19 5 -12 2 6 2 18 0 25 -3 6 -5 1 -5 -13z"/>
<path d="M3061 1424 c0 -11 3 -14 6 -6 3 7 2 16 -1 19 -3 4 -6 -2 -5 -13z"/>
<path d="M3181 1394 c0 -11 3 -14 6 -6 3 7 2 16 -1 19 -3 4 -6 -2 -5 -13z"/>
<path d="M3062 1375 c0 -16 4 -43 9 -60 8 -28 8 -27 4 8 -2 24 0 37 8 37 9 0
9 2 1 8 -6 4 -14 14 -17 22 -3 8 -5 2 -5 -15z"/>
<path d="M1515 1380 c-30 -8 -30 -8 8 -9 23 -1 36 3 32 9 -3 6 -7 9 -8 9 -1
-1 -15 -5 -32 -9z"/>
<path d="M1990 1376 c0 -11 40 -86 45 -86 3 0 -4 19 -16 43 -23 45 -29 54 -29
43z"/>
<path d="M1425 1345 c-29 -28 -32 -70 -8 -105 l17 -24 7 24 c4 14 7 46 8 72 1
27 6 48 14 51 9 4 9 6 -1 6 -7 1 -24 -10 -37 -24z"/>
<path d="M2725 1359 c-4 -6 -5 -12 -2 -15 2 -3 7 2 10 11 7 17 1 20 -8 4z"/>
<path d="M3191 1324 c0 -11 3 -14 6 -6 3 7 2 16 -1 19 -3 4 -6 -2 -5 -13z"/>
<path d="M2681 1263 c-10 -26 -10 -27 4 -9 8 11 15 23 15 28 0 15 -7 8 -19
-19z"/>
<path d="M3083 1245 c0 -22 2 -30 4 -17 2 12 2 30 0 40 -3 9 -5 -1 -4 -23z"/>
<path d="M2284 1245 c1 -28 6 -31 23 -14 9 9 8 15 -2 25 -19 20 -23 18 -21
-11z"/>
<path d="M2056 1250 c35 -59 77 -120 81 -120 2 0 -5 15 -16 33 -11 19 -19 36
-17 38 1 2 -11 18 -27 34 -17 17 -26 23 -21 15z"/>
<path d="M3145 1249 c-4 -6 -5 -12 -2 -15 2 -3 7 2 10 11 7 17 1 20 -8 4z"/>
<path d="M3203 1225 c0 -22 2 -30 4 -17 2 12 2 30 0 40 -3 9 -5 -1 -4 -23z"/>
<path d="M2147 1175 c-4 -8 -3 -16 1 -19 4 -3 9 4 9 15 2 23 -3 25 -10 4z"/>
<path d="M3076 1165 c-9 -26 -7 -32 5 -12 6 10 9 21 6 23 -2 3 -7 -2 -11 -11z"/>
<path d="M3140 1160 c0 -5 5 -10 10 -10 6 0 10 5 10 10 0 6 -4 10 -10 10 -5 0
-10 -4 -10 -10z"/>
<path d="M3190 1151 c0 -11 -12 -34 -26 -53 l-26 -33 31 33 c26 27 42 72 26
72 -3 0 -5 -9 -5 -19z"/>
<path d="M2626 1145 c-9 -26 -7 -32 5 -12 6 10 9 21 6 23 -2 3 -7 -2 -11 -11z"/>
<path d="M3061 1114 c0 -11 3 -14 6 -6 3 7 2 16 -1 19 -3 4 -6 -2 -5 -13z"/>
<path d="M3050 1081 c0 -6 4 -13 10 -16 6 -3 7 1 4 9 -7 18 -14 21 -14 7z"/>
<path d="M511 684 l-71 -66 0 -114 0 -114 150 0 150 0 0 -33 c0 -22 -8 -41
-23 -55 -21 -20 -34 -22 -150 -22 l-127 0 0 -70 0 -70 148 0 148 0 67 68 67
68 0 117 0 117 -145 0 -145 0 0 29 c0 15 9 40 21 55 20 26 22 26 145 26 l124
0 0 65 0 65 -144 0 -144 0 -71 -66z"/>
<path d="M955 445 l0 -305 178 0 177 0 0 65 0 64 -107 3 -108 3 -3 53 -3 52
60 0 61 0 0 65 0 64 -57 3 -58 3 0 50 0 50 85 5 86 5 39 45 c78 90 95 80 -141
80 l-209 0 0 -305z"/>
<path d="M1810 445 l0 -305 211 0 211 0 -52 62 -53 63 -86 5 -86 5 -3 53 -3
52 60 0 61 0 0 65 0 64 -57 3 -58 3 -3 53 -3 52 83 0 84 0 35 38 c19 20 45 49
58 65 l24 27 -211 0 -212 0 0 -305z"/>
<path d="M2276 663 l-76 -88 1 -133 1 -133 70 -84 69 -85 107 0 107 0 80 80
80 80 -81 0 c-68 0 -84 -3 -99 -20 -14 -15 -31 -20 -69 -20 -49 0 -53 2 -93
49 -43 49 -43 50 -43 128 l0 78 46 53 c39 45 51 52 82 52 27 0 44 -8 67 -30
31 -30 35 -31 110 -28 l78 3 -79 92 -79 92 -102 1 -101 0 -76 -87z"/>
<path d="M2699 713 c80 -98 73 -93 129 -93 l52 0 0 -240 0 -240 70 0 70 0 0
240 0 240 40 0 40 0 0 65 0 65 -216 0 -216 0 31 -37z"/>
<path d="M1453 678 l-63 -64 0 -237 0 -237 170 0 170 0 0 65 0 64 -102 3 -103
3 -5 233 -5 233 -62 -63z"/>
</g>
</svg>
