<?xml version="1.0" standalone="no"?>
<!DOCTYPE svg PUBLIC "-//W3C//DTD SVG 20010904//EN"
 "http://www.w3.org/TR/2001/REC-SVG-20010904/DTD/svg10.dtd">
<svg version="1.0" xmlns="http://www.w3.org/2000/svg"
 width="1140.000000pt" height="476.000000pt" viewBox="0 0 1140.000000 476.000000"
 preserveAspectRatio="xMidYMid meet">
<metadata>
Created by potrace 1.16, written by Peter Selinger 2001-2019
</metadata>
<g transform="translate(0.000000,476.000000) scale(0.100000,-0.100000)"
fill="#000000" stroke="none">
<path d="M170 4367 l0 -154 138 -12 c75 -6 182 -20 237 -32 214 -43 470 -148
637 -260 40 -27 76 -49 80 -49 4 0 46 25 93 56 171 111 416 211 628 254 54 11
161 25 237 31 l140 12 0 154 0 153 -79 0 c-185 0 -479 -58 -686 -135 -55 -20
-152 -63 -215 -94 l-116 -58 -136 67 c-272 133 -620 220 -885 220 l-73 0 0
-153z"/>
<path d="M4276 3878 c-7 -18 -98 -279 -201 -580 l-189 -548 -68 0 c-61 0 -68
-2 -68 -20 0 -19 7 -20 170 -20 163 0 170 1 170 20 0 18 -7 20 -74 20 l-74 0
62 188 63 187 163 3 c90 1 167 -1 171 -5 7 -7 119 -353 119 -367 0 -3 -31 -6
-70 -6 -63 0 -70 -2 -70 -20 0 -19 7 -20 220 -20 213 0 220 1 220 20 0 18 -7
20 -60 20 l-59 0 -86 268 c-302 934 -305 944 -339 860z m43 -473 l69 -220
-146 -3 c-79 -1 -147 0 -149 2 -5 4 132 428 145 451 4 6 7 6 9 0 1 -6 34 -109
72 -230z"/>
<path d="M10726 3808 c-20 -57 -110 -317 -200 -578 l-164 -475 -71 -3 c-63 -3
-71 -5 -71 -22 0 -19 8 -20 170 -20 163 0 170 1 170 20 0 18 -7 20 -70 20 -38
0 -70 3 -70 7 0 5 27 90 61 190 l61 183 168 0 169 0 46 -147 c25 -82 52 -167
60 -190 l14 -43 -75 0 c-67 0 -74 -2 -74 -20 0 -19 7 -20 225 -20 218 0 225 1
225 20 0 18 -7 20 -63 20 l-62 0 -186 578 c-216 672 -203 649 -263 480z m68
-404 c36 -117 66 -214 66 -218 0 -3 -68 -6 -151 -6 -117 0 -150 3 -147 13 3 6
38 111 78 231 45 137 75 214 80 205 4 -8 38 -109 74 -225z"/>
<path d="M170 3740 l0 -160 53 0 c75 0 222 -26 319 -56 262 -81 517 -273 668
-502 l53 -82 47 70 c140 211 303 352 527 457 140 65 338 113 471 113 l52 0 0
160 0 160 -24 0 c-122 0 -332 -38 -481 -87 -176 -57 -395 -184 -530 -306 l-60
-54 -80 67 c-257 215 -539 335 -867 370 -51 5 -105 10 -120 10 l-28 0 0 -160z"/>
<path d="M3153 3886 c-137 -43 -223 -162 -223 -310 0 -174 78 -247 365 -347
232 -79 295 -131 295 -239 0 -74 -26 -125 -89 -183 -163 -146 -417 -77 -517
141 -46 100 -54 86 -54 -93 0 -173 3 -179 58 -122 l32 33 72 -35 c70 -35 74
-36 192 -36 110 0 126 2 177 26 79 37 133 90 171 167 29 58 33 77 36 166 3 85
0 110 -18 158 -41 111 -114 160 -330 223 -180 52 -225 72 -265 116 -40 45 -50
74 -42 131 8 59 53 117 116 150 44 23 66 28 125 28 124 0 216 -62 278 -187 48
-99 58 -87 58 72 0 124 -1 135 -18 135 -10 0 -29 -11 -42 -25 l-23 -24 -36 18
c-95 49 -229 64 -318 37z"/>
<path d="M4910 3855 c0 -24 2 -25 65 -25 l65 0 0 -540 0 -540 -65 0 c-58 0
-65 -2 -65 -20 0 -19 7 -20 220 -20 213 0 220 1 220 20 0 18 -7 20 -70 20
l-70 0 2 243 3 242 130 7 c237 12 360 71 421 202 35 76 34 183 -3 257 -71 139
-216 178 -665 179 l-188 0 0 -25z m596 -56 c75 -37 98 -86 99 -214 0 -125 -17
-187 -64 -234 -48 -48 -94 -62 -223 -68 l-108 -6 0 278 0 278 124 -5 c105 -4
131 -9 172 -29z"/>
<path d="M5866 3864 c-11 -28 3 -34 75 -34 l69 0 0 -540 0 -539 -72 -3 c-57
-2 -73 -6 -73 -18 0 -13 34 -15 238 -18 232 -2 237 -2 237 18 0 18 -6 20 -75
20 l-75 0 0 540 0 540 75 0 c73 0 75 1 75 25 l0 25 -234 0 c-205 0 -235 -2
-240 -16z"/>
<path d="M6477 3873 c-4 -3 -7 -15 -7 -25 0 -16 9 -18 65 -18 l65 0 0 -540 0
-540 -65 0 c-58 0 -65 -2 -65 -20 0 -20 7 -20 450 -20 l450 0 0 58 c0 33 3
107 7 165 6 104 5 107 -15 107 -16 0 -22 -8 -27 -41 -4 -22 -22 -70 -41 -107
-59 -117 -122 -142 -361 -142 l-153 0 0 271 0 272 65 -5 c113 -10 165 -54 183
-159 5 -30 13 -45 25 -47 16 -3 17 14 17 217 0 214 -1 221 -20 221 -15 0 -20
-7 -20 -27 0 -15 -10 -47 -21 -71 -28 -57 -78 -81 -166 -82 l-63 0 0 246 0
246 178 -4 c162 -3 181 -5 225 -26 53 -27 87 -76 108 -154 10 -35 18 -48 31
-48 16 0 18 12 18 140 l0 140 -428 0 c-236 0 -432 -3 -435 -7z"/>
<path d="M7544 3866 c-10 -27 6 -36 67 -36 l59 0 0 -540 0 -540 -65 0 c-58 0
-65 -2 -65 -20 0 -19 7 -20 160 -20 153 0 160 1 160 20 0 18 -7 20 -65 20
l-65 0 0 527 c0 448 2 524 14 508 7 -11 67 -112 133 -225 66 -113 191 -326
278 -475 87 -148 176 -300 198 -337 31 -54 44 -68 63 -68 l24 0 0 575 0 575
65 0 c63 0 65 1 65 25 l0 26 -157 -3 c-155 -3 -158 -3 -161 -25 -3 -22 0 -23
62 -23 l66 0 0 -392 c0 -240 -4 -387 -10 -378 -5 8 -116 195 -248 415 l-238
400 -167 3 c-140 2 -168 0 -173 -12z"/>
<path d="M8676 3788 c-3 -50 -6 -127 -6 -170 0 -68 2 -79 16 -76 11 2 23 24
34 63 46 168 112 225 256 225 l64 0 0 -540 0 -540 -75 0 c-68 0 -75 -2 -75
-20 0 -19 7 -20 235 -20 228 0 235 1 235 20 0 18 -7 20 -70 20 l-70 0 0 541 0
542 78 -5 c139 -8 204 -66 240 -216 13 -55 21 -72 35 -72 15 0 17 11 17 88 0
48 -3 124 -7 170 l-6 82 -447 0 -447 0 -7 -92z"/>
<path d="M9674 3865 c-11 -27 7 -35 77 -35 l69 0 0 -540 0 -540 -75 0 c-68 0
-75 -2 -75 -20 0 -19 7 -20 240 -20 233 0 240 1 240 20 0 18 -7 20 -75 20
l-75 0 0 540 0 540 75 0 c73 0 75 1 75 25 l0 25 -235 0 c-197 0 -237 -2 -241
-15z"/>
<path d="M170 3118 c0 -175 -3 -167 80 -168 57 0 199 -55 272 -106 108 -73
187 -179 240 -320 22 -58 22 -68 28 -719 5 -649 5 -661 27 -718 30 -80 76
-149 132 -198 44 -40 129 -89 151 -89 8 0 10 240 7 833 -4 915 -1 875 -68
1048 -59 153 -202 331 -343 428 -118 82 -302 146 -448 158 l-78 6 0 -155z"/>
<path d="M2208 3260 c-109 -19 -255 -73 -338 -126 -214 -136 -344 -311 -422
-564 l-22 -75 -4 -847 c-2 -606 0 -848 8 -848 16 0 69 28 118 64 56 39 124
130 154 204 23 57 23 57 29 712 5 567 8 662 22 710 53 177 175 325 327 398 83
39 137 55 233 67 l47 6 0 155 0 154 -52 -1 c-29 -1 -74 -5 -100 -9z"/>
<path d="M170 1883 c0 -731 1 -769 20 -865 134 -656 820 -1039 1450 -809 306
112 552 362 657 666 58 170 56 135 60 988 l4 789 -33 -7 c-92 -18 -134 -39
-189 -94 -98 -98 -93 -57 -99 -811 l-5 -655 -32 -90 c-87 -250 -262 -421 -518
-507 -62 -20 -89 -23 -225 -23 -143 1 -161 3 -235 28 -213 75 -366 208 -460
402 -80 163 -78 138 -84 875 l-6 655 -23 42 c-50 94 -135 157 -232 172 l-50 8
0 -764z"/>
<path d="M4545 2411 c-77 -20 -132 -72 -160 -152 -18 -50 -19 -147 -4 -200 25
-83 110 -148 194 -149 100 0 166 44 186 123 8 34 17 47 33 50 11 2 -24 4 -79
4 -55 0 -86 -2 -70 -4 42 -6 48 -15 40 -64 -11 -62 -42 -89 -103 -89 -67 0
-97 25 -118 97 -23 81 -16 242 14 300 53 102 183 95 237 -12 l20 -40 3 59 c3
64 -1 75 -21 57 -11 -8 -21 -7 -43 3 -39 19 -92 26 -129 17z"/>
<path d="M5001 2273 c-28 -82 -66 -190 -83 -240 -30 -87 -34 -93 -60 -93 -15
0 -28 -4 -28 -10 0 -6 30 -10 70 -10 40 0 70 4 70 10 0 6 -14 10 -31 10 -21 0
-30 4 -27 13 3 6 15 43 27 80 l23 68 70 -3 70 -3 24 -75 c13 -41 24 -76 24
-77 0 -2 -13 -3 -30 -3 -16 0 -30 -4 -30 -10 0 -6 37 -10 90 -10 53 0 90 4 90
10 0 6 -10 10 -23 10 -21 0 -29 19 -100 240 -43 132 -81 240 -86 240 -5 0 -32
-66 -60 -147z m89 -145 c0 -5 -27 -8 -61 -8 -45 0 -60 3 -57 13 3 6 18 50 33
97 l29 85 28 -90 c15 -49 28 -93 28 -97z"/>
<path d="M6191 2263 c-115 -336 -109 -323 -142 -323 -16 0 -29 -4 -29 -10 0
-6 30 -10 70 -10 40 0 70 4 70 10 0 6 -13 10 -29 10 l-29 0 26 80 27 81 70 -3
70 -3 22 -65 c29 -87 28 -90 -8 -90 -17 0 -28 -4 -24 -10 8 -13 185 -13 185
-1 0 5 -12 11 -27 13 -26 3 -30 12 -103 237 -41 129 -80 236 -85 238 -6 2 -35
-68 -64 -154z m69 -52 l28 -91 -63 0 -63 0 31 95 c17 52 33 93 35 91 2 -2 16
-45 32 -95z"/>
<path d="M9864 2401 c-52 -23 -79 -75 -71 -135 8 -55 45 -86 142 -123 43 -15
91 -40 108 -56 25 -23 28 -32 23 -60 -4 -17 -20 -45 -36 -62 -27 -26 -38 -30
-86 -30 -52 0 -58 2 -92 41 -20 22 -42 49 -49 60 -10 16 -12 8 -12 -48 -1 -67
4 -79 26 -57 8 8 24 6 58 -6 130 -43 243 50 222 182 -9 56 -47 87 -142 117
-103 33 -126 50 -127 95 -1 47 38 81 93 81 54 0 91 -21 114 -64 11 -20 23 -36
27 -36 5 0 8 25 8 55 0 54 -6 65 -26 45 -7 -7 -22 -6 -47 5 -48 20 -83 19
-133 -4z"/>
<path d="M2860 2400 c0 -5 14 -10 30 -10 l30 0 0 -225 0 -225 -30 0 c-16 0
-30 -4 -30 -10 0 -6 37 -10 90 -10 53 0 90 4 90 10 0 6 -11 10 -25 10 l-25 0
0 110 0 110 105 0 105 0 0 -110 0 -110 -25 0 c-14 0 -25 -4 -25 -10 0 -6 37
-10 90 -10 53 0 90 4 90 10 0 6 -13 10 -30 10 l-30 0 0 225 0 225 30 0 c17 0
30 5 30 10 0 6 -37 10 -90 10 -53 0 -90 -4 -90 -10 0 -5 11 -10 25 -10 l25 0
0 -105 0 -105 -105 0 -105 0 0 105 0 105 25 0 c14 0 25 5 25 10 0 6 -37 10
-90 10 -53 0 -90 -4 -90 -10z"/>
<path d="M3390 2401 c0 -5 12 -11 28 -13 l27 -3 3 -195 c2 -169 5 -198 20
-220 58 -81 206 -79 266 3 19 26 21 45 24 223 l4 194 24 0 c13 0 24 5 24 10 0
6 -28 10 -65 10 -37 0 -65 -4 -65 -10 0 -5 14 -10 30 -10 l30 0 0 -175 c0
-186 -7 -222 -49 -259 -30 -27 -111 -28 -140 -2 -33 30 -41 79 -41 264 l0 172
30 0 c17 0 30 5 30 10 0 6 -37 10 -90 10 -49 0 -90 -4 -90 -9z"/>
<path d="M3880 2400 c0 -5 11 -10 25 -10 l25 0 0 -225 0 -225 -25 0 c-14 0
-25 -4 -25 -10 0 -6 26 -10 59 -10 33 0 63 5 66 10 4 6 -7 10 -24 10 l-31 0 0
217 c0 119 3 213 8 209 4 -4 66 -107 137 -228 72 -122 136 -223 143 -226 9 -3
12 49 12 237 l0 241 25 0 c14 0 25 5 25 10 0 6 -28 10 -65 10 -37 0 -65 -4
-65 -10 0 -5 11 -10 25 -10 l25 0 0 -155 c0 -85 -2 -155 -4 -155 -3 0 -48 74
-102 165 l-98 165 -68 0 c-39 0 -68 -4 -68 -10z"/>
<path d="M5320 2400 c0 -5 11 -10 25 -10 l25 0 0 -225 0 -225 -30 0 c-16 0
-30 -4 -30 -10 0 -6 36 -10 89 -10 50 0 93 5 96 10 4 6 -7 10 -24 10 l-31 0 0
120 0 120 31 0 c17 0 46 -7 65 -16 37 -18 48 -44 59 -138 10 -91 58 -130 133
-110 12 4 22 10 22 15 0 5 -11 7 -24 3 -34 -8 -56 27 -56 89 0 73 -23 112 -84
141 -45 22 -48 25 -23 26 61 0 127 58 127 111 0 41 -42 85 -94 98 -56 14 -276
15 -276 1z m265 -35 c19 -18 25 -35 25 -70 0 -69 -30 -95 -110 -95 l-60 0 0
95 0 95 60 0 c51 0 65 -4 85 -25z"/>
<path d="M5790 2400 c0 -5 14 -10 30 -10 l30 0 0 -225 0 -225 -30 0 c-16 0
-30 -4 -30 -10 0 -6 40 -10 100 -10 60 0 100 4 100 10 0 6 -13 10 -30 10 l-30
0 0 225 0 225 30 0 c17 0 30 5 30 10 0 6 -40 10 -100 10 -60 0 -100 -4 -100
-10z"/>
<path d="M6510 2400 c0 -5 11 -10 25 -10 l25 0 0 -225 0 -225 -25 0 c-14 0
-25 -4 -25 -10 0 -6 28 -10 65 -10 37 0 65 4 65 10 0 6 -13 10 -30 10 l-30 0
0 217 c0 135 4 213 9 208 5 -6 68 -109 139 -230 71 -120 134 -221 141 -223 8
-3 11 62 11 237 l0 241 25 0 c14 0 25 5 25 10 0 6 -28 10 -65 10 -37 0 -65 -4
-65 -10 0 -5 14 -10 30 -10 l30 0 0 -161 c0 -92 -4 -158 -9 -155 -5 3 -53 80
-107 171 l-98 165 -68 0 c-39 0 -68 -4 -68 -10z"/>
<path d="M7180 2400 c0 -5 14 -10 30 -10 l30 0 0 -199 c0 -188 1 -200 22 -226
60 -76 203 -72 262 8 19 26 21 45 24 223 l4 194 29 0 c18 0 28 4 24 10 -3 6
-35 10 -71 10 -36 0 -64 -4 -64 -10 0 -5 14 -10 30 -10 l30 0 0 -175 c0 -187
-7 -222 -50 -260 -16 -15 -36 -20 -73 -19 -42 0 -54 5 -74 28 -22 26 -23 32
-23 227 l0 199 25 0 c14 0 25 5 25 10 0 6 -37 10 -90 10 -53 0 -90 -4 -90 -10z"/>
<path d="M7670 2400 c0 -5 11 -10 25 -10 l25 0 0 -225 0 -225 -25 0 c-14 0
-25 -4 -25 -10 0 -6 28 -10 65 -10 37 0 65 4 65 10 0 6 -13 10 -30 10 l-30 0
0 217 c0 135 4 213 9 208 5 -6 68 -109 139 -230 71 -120 134 -221 141 -223 8
-3 11 62 11 237 l0 241 25 0 c14 0 25 5 25 10 0 6 -28 10 -65 10 -37 0 -65 -4
-65 -10 0 -5 14 -10 30 -10 l30 0 0 -161 c0 -92 -4 -158 -9 -155 -5 3 -53 80
-107 171 l-98 165 -68 0 c-39 0 -68 -4 -68 -10z"/>
<path d="M8150 2400 c0 -5 14 -10 30 -10 l30 0 0 -225 0 -225 -30 0 c-16 0
-30 -4 -30 -10 0 -6 38 -10 95 -10 57 0 95 4 95 10 0 6 -13 10 -30 10 l-30 0
0 225 0 225 30 0 c17 0 30 5 30 10 0 6 -38 10 -95 10 -57 0 -95 -4 -95 -10z"/>
<path d="M8380 2401 c0 -5 12 -11 27 -13 25 -3 30 -14 106 -240 43 -131 82
-238 87 -238 5 0 44 107 87 238 76 226 81 237 106 240 55 7 25 22 -43 22 -40
0 -70 -4 -70 -10 0 -5 15 -10 34 -10 l34 0 -55 -167 c-31 -93 -59 -171 -62
-175 -6 -7 -122 314 -121 335 0 4 11 7 25 7 14 0 25 5 25 10 0 6 -37 10 -90
10 -49 0 -90 -4 -90 -9z"/>
<path d="M8860 2400 c0 -5 11 -10 25 -10 l25 0 0 -225 0 -225 -25 0 c-14 0
-25 -4 -25 -10 0 -6 68 -10 185 -10 l185 0 0 48 c0 26 3 57 6 70 11 40 -11 23
-30 -24 -23 -57 -58 -74 -151 -74 l-65 0 0 115 0 115 28 -6 c46 -11 63 -24 69
-55 11 -58 23 -27 23 61 0 53 -4 90 -10 90 -5 0 -10 -6 -10 -14 0 -24 -34 -54
-67 -60 l-33 -5 0 105 0 106 81 -4 c74 -3 83 -6 105 -31 13 -16 24 -37 24 -48
0 -10 5 -19 10 -19 6 0 10 27 10 60 l0 60 -180 0 c-113 0 -180 -4 -180 -10z"/>
<path d="M9310 2400 c0 -5 11 -10 25 -10 l25 0 0 -225 0 -225 -30 0 c-16 0
-30 -4 -30 -10 0 -6 38 -10 95 -10 57 0 95 4 95 10 0 6 -13 10 -30 10 l-30 0
0 120 0 120 31 0 c45 0 96 -27 107 -58 6 -15 14 -56 18 -91 10 -96 55 -135
132 -115 12 4 22 10 22 15 0 5 -11 7 -24 3 -35 -8 -56 27 -56 94 0 72 -19 105
-77 133 l-48 23 34 7 c71 15 111 56 111 113 0 38 -43 82 -94 95 -56 14 -276
15 -276 1z m265 -35 c19 -18 25 -35 25 -70 0 -69 -30 -95 -110 -95 l-60 0 0
95 0 95 60 0 c51 0 65 -4 85 -25z"/>
<path d="M10150 2400 c0 -5 14 -10 30 -10 l30 0 0 -225 0 -225 -30 0 c-16 0
-30 -4 -30 -10 0 -6 38 -10 95 -10 57 0 95 4 95 10 0 6 -13 10 -30 10 l-30 0
0 225 0 225 36 0 c21 0 33 4 29 10 -3 6 -48 10 -101 10 -56 0 -94 -4 -94 -10z"/>
<path d="M10380 2338 c0 -76 9 -80 30 -15 13 42 55 70 97 65 l27 -3 -1 -220
-1 -220 -31 -3 c-17 -2 -31 -7 -31 -13 0 -5 45 -9 100 -9 60 0 100 4 100 10 0
6 -13 10 -30 10 l-30 0 0 225 0 225 25 0 c46 0 77 -23 101 -75 l23 -50 0 73 1
72 -190 0 -190 0 0 -72z"/>
<path d="M10780 2400 c0 -5 11 -10 24 -10 21 0 36 -19 95 -119 l71 -120 0
-105 0 -106 -30 0 c-16 0 -30 -4 -30 -10 0 -6 40 -10 100 -10 60 0 100 4 100
10 0 6 -16 10 -35 10 l-35 0 0 103 0 102 64 120 c59 111 66 120 95 123 61 6
30 22 -44 22 -43 0 -75 -4 -75 -10 0 -5 15 -10 34 -10 l35 0 -46 -87 c-75
-141 -62 -140 -132 -21 l-60 103 29 3 c17 2 30 7 30 13 0 5 -43 9 -95 9 -57 0
-95 -4 -95 -10z"/>
<path d="M3004 1521 c-50 -23 -111 -93 -125 -144 -33 -124 6 -257 93 -315 59
-39 147 -39 206 0 119 79 141 285 43 399 -38 46 -100 79 -146 79 -16 0 -48 -9
-71 -19z m146 -29 c38 -38 50 -88 50 -207 0 -114 -11 -163 -45 -202 -20 -24
-31 -28 -80 -28 -50 0 -60 3 -81 28 -36 42 -47 99 -42 227 6 162 35 210 126
210 34 0 49 -6 72 -28z"/>
<path d="M5001 1518 c-4 -13 -41 -121 -82 -240 -72 -213 -75 -218 -101 -218
-16 0 -28 -4 -28 -10 0 -6 30 -10 70 -10 40 0 70 4 70 10 0 6 -13 10 -30 10
-16 0 -30 3 -30 8 0 4 11 39 24 77 l23 70 70 3 71 3 23 -68 c12 -37 24 -74 27
-80 3 -9 -6 -13 -27 -13 -17 0 -31 -4 -31 -10 0 -6 37 -10 90 -10 53 0 90 4
90 10 0 6 -11 10 -24 10 -17 0 -27 7 -31 23 -49 165 -149 457 -156 457 -5 0
-13 -10 -18 -22z m49 -270 c0 -5 -27 -8 -60 -8 -33 0 -60 4 -60 8 0 8 43 138
56 172 5 12 63 -145 64 -172z"/>
<path d="M5830 1522 c-47 -23 -72 -74 -67 -132 6 -56 41 -89 123 -119 84 -30
127 -55 144 -84 13 -23 13 -30 -2 -61 -20 -41 -53 -65 -101 -73 -50 -8 -98 19
-133 74 l-29 47 -3 -63 c-3 -71 1 -82 24 -59 14 14 19 14 46 1 42 -21 120 -19
159 3 55 33 74 67 74 139 0 87 -27 116 -144 151 -99 31 -136 61 -127 102 11
45 50 72 104 72 53 0 79 -17 111 -70 l21 -35 0 58 c0 52 -10 71 -25 48 -3 -6
-19 -4 -40 5 -46 19 -92 18 -135 -4z"/>
<path d="M7613 1458 c-17 -46 -54 -154 -84 -240 -52 -153 -55 -158 -81 -158
-16 0 -28 -4 -28 -10 0 -6 30 -10 70 -10 40 0 70 4 70 10 0 6 -14 10 -31 10
-21 0 -30 4 -27 13 3 6 15 43 27 80 l23 68 70 -3 70 -3 24 -75 c13 -41 24 -76
24 -77 0 -2 -13 -3 -30 -3 -16 0 -30 -4 -30 -10 0 -6 37 -10 90 -10 53 0 90 4
90 10 0 6 -10 10 -23 10 -21 0 -29 19 -100 240 -43 132 -82 240 -86 240 -5 0
-22 -37 -38 -82z m67 -210 c0 -5 -27 -8 -61 -8 -45 0 -60 3 -57 13 3 6 18 50
33 97 l29 85 28 -90 c15 -49 28 -93 28 -97z"/>
<path d="M8781 1382 c-116 -337 -109 -322 -142 -322 -16 0 -29 -4 -29 -10 0
-6 30 -10 70 -10 40 0 70 4 70 10 0 6 -13 10 -29 10 l-29 0 26 80 26 80 72 0
71 0 21 -74 c12 -41 22 -77 22 -80 0 -3 -11 -6 -25 -6 -14 0 -25 -4 -25 -10 0
-6 37 -10 90 -10 50 0 90 4 90 9 0 5 -12 11 -27 13 -26 3 -30 12 -102 240 -42
131 -80 238 -86 238 -5 0 -34 -71 -64 -158z m72 -59 l25 -83 -63 0 -63 0 31
95 c17 53 34 89 38 82 4 -6 18 -49 32 -94z"/>
<path d="M3350 1520 c0 -5 14 -10 30 -10 l30 0 -2 -222 -3 -223 -27 -3 c-16
-2 -28 -8 -28 -13 0 -12 177 -12 185 1 4 6 -7 10 -24 10 l-31 0 0 110 0 110
29 0 c30 0 48 -16 68 -59 10 -22 11 -12 12 69 0 90 0 93 -14 62 -8 -18 -26
-37 -40 -42 -54 -20 -55 -18 -55 95 l0 105 70 0 c38 0 80 -5 93 -11 24 -11 31
-21 55 -79 9 -21 11 -14 11 43 l1 67 -180 0 c-113 0 -180 -4 -180 -10z"/>
<path d="M3920 1460 c0 -38 4 -70 8 -70 4 0 13 20 20 45 13 49 48 75 102 75
l30 0 -2 -222 -3 -223 -33 -3 c-18 -2 -30 -8 -27 -13 8 -12 182 -12 190 1 4 6
-7 10 -24 10 l-31 0 0 225 0 225 34 0 c45 0 83 -32 96 -81 6 -21 13 -39 15
-39 3 0 5 32 5 70 l0 70 -190 0 -190 0 0 -70z"/>
<path d="M4320 1520 c0 -5 14 -10 30 -10 l30 0 0 -225 0 -225 -30 0 c-16 0
-30 -4 -30 -10 0 -6 36 -10 89 -10 50 0 93 5 96 10 4 6 -7 10 -24 10 l-31 0 0
121 0 122 46 -6 c69 -7 93 -37 105 -127 10 -80 27 -115 64 -132 27 -12 95 -3
95 14 0 6 -9 8 -21 5 -35 -9 -59 25 -59 84 0 75 -22 114 -82 142 l-50 24 41 7
c53 8 100 50 107 97 8 48 -29 92 -90 108 -56 14 -286 15 -286 1z m277 -36 c22
-22 25 -32 20 -77 -6 -68 -29 -87 -108 -87 l-59 0 0 95 0 95 60 0 c52 0 65 -4
87 -26z"/>
<path d="M5270 1520 c0 -5 14 -10 30 -10 l30 0 0 -225 0 -225 -30 0 c-16 0
-30 -4 -30 -10 0 -6 28 -10 65 -10 37 0 65 4 65 10 0 6 -11 10 -25 10 l-25 0
0 218 1 217 24 -40 c14 -22 76 -127 138 -232 61 -106 115 -193 120 -193 4 0 7
108 7 240 l0 240 30 0 c17 0 30 5 30 10 0 6 -28 10 -65 10 -37 0 -65 -4 -65
-10 0 -5 11 -10 25 -10 l25 0 0 -162 c0 -104 -4 -158 -10 -148 -5 8 -51 85
-103 170 l-93 155 -72 3 c-45 2 -72 -1 -72 -8z"/>
<path d="M6095 1520 c3 -5 17 -10 30 -10 19 0 35 -21 94 -120 l71 -121 0 -104
0 -105 -30 0 c-16 0 -30 -4 -30 -10 0 -6 38 -10 95 -10 57 0 95 4 95 10 0 6
-13 10 -30 10 l-30 0 0 104 0 104 63 119 c51 96 68 119 88 121 13 2 28 8 33
13 6 5 -20 9 -67 9 -45 0 -77 -4 -77 -10 0 -5 14 -10 30 -10 17 0 30 -3 30 -7
0 -5 -25 -53 -54 -107 l-54 -99 -61 104 -61 104 30 3 c17 2 30 7 30 13 0 5
-45 9 -101 9 -64 0 -98 -4 -94 -10z"/>
<path d="M6570 1520 c0 -5 14 -10 30 -10 l30 0 0 -225 0 -225 -30 0 c-16 0
-30 -4 -30 -10 0 -6 66 -10 179 -10 154 0 180 2 185 16 10 27 7 126 -4 119 -5
-3 -10 -15 -10 -25 0 -11 -13 -34 -29 -52 -28 -31 -33 -33 -110 -36 l-81 -4 0
226 0 226 35 0 c19 0 35 5 35 10 0 6 -40 10 -100 10 -60 0 -100 -4 -100 -10z"/>
<path d="M6960 1520 c0 -5 12 -10 28 -10 27 0 29 -4 108 -237 45 -131 85 -237
90 -236 5 1 44 108 87 237 74 221 80 236 103 236 13 0 24 5 24 10 0 6 -28 10
-65 10 -37 0 -65 -4 -65 -10 0 -5 14 -10 31 -10 24 0 29 -3 25 -17 -56 -175
-115 -335 -120 -323 -3 8 -28 80 -55 160 -27 80 -52 153 -56 163 -6 14 -2 17
24 17 17 0 31 5 31 10 0 6 -38 10 -95 10 -57 0 -95 -4 -95 -10z"/>
<path d="M7900 1520 c0 -5 14 -10 30 -10 l30 0 0 -225 0 -225 -30 0 c-16 0
-30 -4 -30 -10 0 -6 28 -10 65 -10 37 0 65 4 65 10 0 6 -11 10 -25 10 l-25 0
0 215 c0 118 2 215 4 215 2 0 64 -103 137 -230 74 -126 137 -230 142 -230 4 0
7 108 7 240 l0 240 30 0 c17 0 30 5 30 10 0 6 -28 10 -65 10 -37 0 -65 -4 -65
-10 0 -5 11 -10 25 -10 l25 0 0 -162 c0 -107 -4 -158 -10 -148 -5 8 -51 86
-102 172 l-93 158 -72 0 c-42 0 -73 -4 -73 -10z"/>
<path d="M8380 1520 c0 -5 14 -10 30 -10 l30 0 0 -225 0 -225 -31 0 c-17 0
-28 -4 -24 -10 8 -13 195 -13 195 0 0 6 -13 10 -30 10 l-30 0 0 225 0 225 30
0 c17 0 30 5 30 10 0 6 -40 10 -100 10 -60 0 -100 -4 -100 -10z"/>
</g>
</svg>
